<?xml version="1.0" encoding="utf-8"?>
<!-- Generator: Adobe Illustrator 23.0.1, SVG Export Plug-In . SVG Version: 6.00 Build 0)  -->
<svg version="1.1" id="Layer_1" xmlns="http://www.w3.org/2000/svg" xmlns:xlink="http://www.w3.org/1999/xlink" x="0px" y="0px"
	 viewBox="0 0 411.02 411.02" style="enable-background:new 0 0 411.02 411.02;" xml:space="preserve">
<style type="text/css">
	.st0{fill:#E6E7E8;stroke:#58595B;stroke-width:12;stroke-linecap:round;stroke-miterlimit:10;}
	.st1{enable-background:new    ;}
	.st2{clip-path:url(#SVGID_2_);enable-background:new    ;}
	.st3{fill:#960058;}
	.st4{fill:#950058;}
	.st5{clip-path:url(#SVGID_4_);enable-background:new    ;}
	.st6{clip-path:url(#SVGID_6_);enable-background:new    ;}
	.st7{clip-path:url(#SVGID_8_);enable-background:new    ;}
	.st8{clip-path:url(#SVGID_10_);enable-background:new    ;}
	.st9{clip-path:url(#SVGID_12_);enable-background:new    ;}
	.st10{clip-path:url(#SVGID_14_);enable-background:new    ;}
	.st11{fill:#AE0067;}
	.st12{clip-path:url(#SVGID_16_);enable-background:new    ;}
	.st13{fill:#007338;}
	.st14{fill:#007339;}
	.st15{clip-path:url(#SVGID_18_);enable-background:new    ;}
	.st16{clip-path:url(#SVGID_20_);enable-background:new    ;}
	.st17{clip-path:url(#SVGID_22_);enable-background:new    ;}
	.st18{clip-path:url(#SVGID_24_);enable-background:new    ;}
	.st19{clip-path:url(#SVGID_26_);enable-background:new    ;}
	.st20{clip-path:url(#SVGID_28_);enable-background:new    ;}
	.st21{fill:#008543;}
	.st22{clip-path:url(#SVGID_30_);enable-background:new    ;}
	.st23{fill:#00709A;}
	.st24{fill:#0082B3;}
</style>
<ellipse class="st0" cx="205.51" cy="205.51" rx="179.96" ry="130.05"/>
<g>
	
		<image style="overflow:visible;opacity:0.75;" width="580" height="742" xlink:href="EE02A9F7608E832B.png"  transform="matrix(0.24 0 0 0.24 195.0499 110.8101)">
	</image>
	<g>
		<g class="st1">
			<g class="st1">
				<defs>
					<path id="SVGID_1_" class="st1" d="M196.89,240.84l13.07-15.92c0.47-0.57,1.86-1.82,3.72-3.36c1.86-1.55,4.2-3.4,6.54-5.18
						c2.35-1.79,4.71-3.51,6.58-4.77c1.88-1.26,3.28-2.06,3.7-1.99l-10.41,14.1c-0.48-0.08-2.06,0.82-4.19,2.23
						c-2.12,1.41-4.79,3.33-7.44,5.34c-2.64,1.99-5.28,4.07-7.38,5.8C198.99,238.81,197.42,240.19,196.89,240.84z"/>
				</defs>
				<clipPath id="SVGID_2_">
					<use xlink:href="#SVGID_1_"  style="overflow:visible;"/>
				</clipPath>
				<g class="st2">
					<path class="st3" d="M196.89,240.84l13.07-15.92c0.24-0.3,0.73-0.77,1.4-1.37c0.67-0.6,1.53-1.33,2.5-2.14
						c0.98-0.81,2.07-1.69,3.23-2.61c1.16-0.91,2.37-1.85,3.58-2.77l-11.71,14.86c-1.36,1.02-2.74,2.08-4.04,3.1
						c-1.3,1.02-2.54,2.01-3.64,2.91c-1.1,0.9-2.06,1.72-2.81,2.39C197.71,239.98,197.16,240.51,196.89,240.84"/>
					<path class="st4" d="M208.96,230.9l11.71-14.86c1.14-0.86,2.27-1.7,3.33-2.47c1.07-0.77,2.08-1.48,2.97-2.07
						c0.9-0.6,1.67-1.08,2.28-1.41c0.61-0.33,1.04-0.5,1.24-0.47l-10.41,14.1c-0.23-0.04-0.72,0.15-1.41,0.52
						c-0.69,0.37-1.57,0.91-2.58,1.58c-1.01,0.67-2.16,1.46-3.37,2.32C211.52,229,210.25,229.94,208.96,230.9"/>
				</g>
			</g>
			<g class="st1">
				<defs>
					<path id="SVGID_3_" class="st1" d="M269.97,214.16l-4.72,15.01c-0.68,2.16-1.81,4.21-3.27,6.05c-1.46,1.83-3.24,3.45-5.23,4.75
						c-1.99,1.3-4.18,2.28-6.47,2.83c-2.28,0.56-4.66,0.69-7.03,0.31c-0.16-0.03-0.33-0.06-0.49-0.09s-0.33-0.07-0.49-0.1
						c-0.16-0.04-0.32-0.08-0.49-0.12c-0.16-0.04-0.32-0.09-0.49-0.13c-3.77-1.09-6.73-2.75-9.12-4.64
						c-2.39-1.89-4.21-4.01-5.68-6.04c-1.47-2.03-2.6-3.96-3.59-5.46c-1-1.5-1.86-2.56-2.81-2.83l10.41-14.1
						c0.83,0.24,1.58,1.16,2.44,2.48c0.86,1.32,1.83,3.02,3.11,4.8c1.28,1.78,2.86,3.65,4.94,5.31c2.08,1.65,4.67,3.1,7.97,4.04
						c0.14,0.04,0.28,0.08,0.42,0.11c0.14,0.04,0.28,0.07,0.43,0.1s0.28,0.06,0.43,0.09c0.14,0.03,0.28,0.05,0.43,0.07
						c2.07,0.32,4.15,0.19,6.16-0.32c2.01-0.51,3.93-1.39,5.67-2.55c1.75-1.16,3.31-2.61,4.59-4.23
						C268.38,217.89,269.37,216.07,269.97,214.16z"/>
				</defs>
				<clipPath id="SVGID_4_">
					<use xlink:href="#SVGID_3_"  style="overflow:visible;"/>
				</clipPath>
				<g class="st5">
					<path class="st4" d="M220.09,223.72l10.41-14.1c0.83,0.24,1.58,1.16,2.44,2.48c0.86,1.32,1.83,3.02,3.11,4.8
						c1.28,1.78,2.86,3.65,4.94,5.31c2.08,1.65,4.67,3.1,7.97,4.04c0.14,0.04,0.28,0.08,0.42,0.11c0.14,0.04,0.28,0.07,0.43,0.1
						s0.28,0.06,0.43,0.09c0.14,0.03,0.28,0.05,0.43,0.07c1.09,0.17,2.18,0.21,3.26,0.14c1.08-0.07,2.16-0.26,3.21-0.55
						c1.05-0.29,2.08-0.68,3.07-1.16c0.99-0.48,1.94-1.05,2.84-1.69l-5.68,16.18c-1.02,0.72-2.11,1.35-3.24,1.88
						c-1.13,0.53-2.3,0.96-3.5,1.28c-1.2,0.32-2.42,0.52-3.66,0.59c-1.24,0.07-2.48,0.01-3.73-0.19c-0.16-0.03-0.33-0.06-0.49-0.09
						s-0.33-0.07-0.49-0.1c-0.16-0.04-0.32-0.08-0.49-0.12c-0.16-0.04-0.32-0.09-0.49-0.13c-3.77-1.09-6.73-2.75-9.12-4.64
						c-2.39-1.89-4.21-4.01-5.68-6.04c-1.47-2.03-2.6-3.96-3.59-5.46C221.91,225.05,221.04,223.99,220.09,223.72"/>
					<path class="st3" d="M257.37,239.56l5.68-16.18c0.31-0.22,0.6-0.44,0.9-0.68c0.29-0.23,0.58-0.48,0.86-0.73
						c0.28-0.25,0.55-0.51,0.81-0.77c0.26-0.27,0.52-0.54,0.76-0.82l-5.22,15.81c-0.28,0.31-0.57,0.62-0.87,0.92
						c-0.3,0.3-0.61,0.59-0.93,0.87c-0.32,0.28-0.64,0.55-0.98,0.82C258.05,239.06,257.71,239.31,257.37,239.56"/>
					<path class="st3" d="M261.16,236.19l5.22-15.81c0.21-0.24,0.42-0.49,0.62-0.74c0.2-0.25,0.39-0.5,0.58-0.76
						c0.19-0.26,0.36-0.52,0.54-0.79c0.17-0.27,0.34-0.54,0.49-0.81l-4.91,15.42c-0.18,0.31-0.36,0.61-0.56,0.92
						c-0.19,0.3-0.4,0.6-0.61,0.89c-0.21,0.29-0.43,0.58-0.66,0.86C261.64,235.65,261.4,235.92,261.16,236.19"/>
					<path class="st3" d="M263.69,232.7l4.91-15.42c0.14-0.25,0.28-0.5,0.41-0.76c0.13-0.26,0.25-0.51,0.37-0.77
						c0.11-0.26,0.22-0.52,0.32-0.79c0.1-0.27,0.19-0.53,0.28-0.8l-4.72,15.01c-0.1,0.3-0.2,0.61-0.31,0.91
						c-0.11,0.3-0.24,0.6-0.37,0.89c-0.13,0.29-0.27,0.59-0.42,0.88C264.01,232.13,263.85,232.42,263.69,232.7"/>
				</g>
			</g>
			<g class="st1">
				<defs>
					<path id="SVGID_5_" class="st1" d="M295.15,212.16c-0.33,4.98-0.66,9.96-0.99,14.94c0.43-6.49-0.75-11.99-2.76-16.65
						c-2.02-4.68-4.88-8.48-7.75-11.59c-2.88-3.12-5.77-5.52-7.87-7.42c-2.1-1.9-3.41-3.29-3.12-4.36l3.89-9.88
						c-0.26,0.94,0.88,2.15,2.69,3.8c1.82,1.65,4.32,3.74,6.82,6.45c2.49,2.71,4.96,6.02,6.71,10.11
						C294.51,201.63,295.53,206.45,295.15,212.16z"/>
				</defs>
				<clipPath id="SVGID_6_">
					<use xlink:href="#SVGID_5_"  style="overflow:visible;"/>
				</clipPath>
				<g class="st6">
					<path class="st4" d="M272.66,187.08l3.89-9.88c-0.26,0.94,0.88,2.15,2.69,3.8c1.82,1.65,4.32,3.74,6.82,6.45
						c2.49,2.71,4.96,6.02,6.71,10.11c1.74,4.07,2.77,8.89,2.39,14.6l-0.99,14.94c0.43-6.49-0.75-11.99-2.76-16.65
						c-2.02-4.68-4.88-8.48-7.75-11.59c-2.88-3.12-5.77-5.52-7.87-7.42C273.68,189.54,272.37,188.15,272.66,187.08"/>
				</g>
			</g>
			<g class="st1">
				<defs>
					<path id="SVGID_7_" class="st1" d="M230.81,186.54l9.33-9.65c1.78-1.84,4.89-4.13,8.63-6.61c3.77-2.5,8.17-5.21,12.47-7.86
						c4.34-2.67,8.57-5.28,11.92-7.54c3.37-2.28,5.85-4.22,6.63-5.51l-3.48,5.74c-0.9,1.49-3.76,3.71-7.65,6.33
						c-3.86,2.6-8.73,5.58-13.71,8.63c-4.94,3.02-9.99,6.1-14.3,8.95C236.39,181.85,232.84,184.45,230.81,186.54z"/>
				</defs>
				<clipPath id="SVGID_8_">
					<use xlink:href="#SVGID_7_"  style="overflow:visible;"/>
				</clipPath>
				<g class="st7">
					<path class="st3" d="M230.81,186.54l9.33-9.65c0.19-0.19,0.39-0.39,0.6-0.59c0.22-0.2,0.44-0.41,0.69-0.62
						c0.24-0.21,0.5-0.43,0.77-0.65c0.27-0.22,0.55-0.45,0.84-0.67l-8.92,9.31c-0.33,0.26-0.65,0.51-0.96,0.77
						c-0.31,0.25-0.6,0.5-0.87,0.74c-0.28,0.24-0.54,0.48-0.78,0.71C231.26,186.1,231.03,186.32,230.81,186.54"/>
					<path class="st4" d="M234.12,183.66l8.92-9.31c2.07-1.62,4.73-3.44,7.67-5.34c2.95-1.91,6.2-3.91,9.41-5.9
						c3.24-1.99,6.46-3.97,9.33-5.8c2.89-1.85,5.44-3.56,7.31-5.01l-3.94,6.18c-2.16,1.67-5.09,3.63-8.43,5.75
						c-3.31,2.1-7.01,4.36-10.73,6.64c-3.69,2.26-7.41,4.54-10.79,6.72C239.52,179.75,236.48,181.81,234.12,183.66"/>
					<path class="st3" d="M272.83,158.48l3.94-6.18c0.28-0.22,0.55-0.44,0.81-0.64c0.25-0.21,0.49-0.41,0.71-0.61
						c0.22-0.2,0.42-0.38,0.6-0.57c0.18-0.18,0.34-0.36,0.48-0.52l-3.54,5.83c-0.16,0.19-0.35,0.39-0.56,0.6
						c-0.21,0.21-0.44,0.43-0.69,0.65c-0.25,0.22-0.52,0.46-0.81,0.7C273.47,157.98,273.16,158.23,272.83,158.48"/>
					<path class="st3" d="M275.82,155.79l3.54-5.83c0.04-0.05,0.09-0.1,0.13-0.16s0.08-0.1,0.12-0.15c0.04-0.05,0.07-0.1,0.1-0.15
						c0.03-0.05,0.06-0.09,0.09-0.14l-3.48,5.74c-0.03,0.05-0.07,0.11-0.1,0.16c-0.04,0.06-0.08,0.11-0.12,0.17
						c-0.04,0.06-0.09,0.11-0.13,0.17S275.87,155.73,275.82,155.79"/>
				</g>
			</g>
			<g class="st1">
				<defs>
					<path id="SVGID_9_" class="st1" d="M234.51,112.35l9.32,0.11c0.07,0,0.14,0,0.21,0.01c0.07,0,0.14,0.01,0.21,0.01
						c0.07,0,0.14,0.01,0.21,0.02s0.14,0.01,0.21,0.02l-9.18-0.1c-0.08-0.01-0.16-0.02-0.24-0.03c-0.08-0.01-0.16-0.01-0.24-0.02
						c-0.08-0.01-0.16-0.01-0.24-0.01C234.67,112.35,234.59,112.35,234.51,112.35z"/>
				</defs>
				<clipPath id="SVGID_10_">
					<use xlink:href="#SVGID_9_"  style="overflow:visible;"/>
				</clipPath>
				<g class="st8">
					<path class="st4" d="M234.51,112.35l9.32,0.11c0.07,0,0.14,0,0.21,0.01c0.07,0,0.14,0.01,0.21,0.01c0.07,0,0.14,0.01,0.21,0.02
						s0.14,0.01,0.21,0.02l-9.18-0.1c-0.08-0.01-0.16-0.02-0.24-0.03c-0.08-0.01-0.16-0.01-0.24-0.02
						c-0.08-0.01-0.16-0.01-0.24-0.01C234.67,112.35,234.59,112.35,234.51,112.35"/>
				</g>
			</g>
			<g class="st1">
				<defs>
					<path id="SVGID_11_" class="st1" d="M235.48,112.41l9.18,0.1c0.41,0.05,0.84,0.13,1.26,0.22c0.42,0.09,0.85,0.21,1.27,0.32
						c0.42,0.12,0.83,0.24,1.23,0.36c0.4,0.12,0.78,0.23,1.14,0.32l-8.41,0.1c-0.42-0.11-0.86-0.24-1.32-0.37
						c-0.46-0.14-0.94-0.28-1.42-0.41c-0.48-0.14-0.98-0.27-1.47-0.38C236.44,112.56,235.95,112.47,235.48,112.41z"/>
				</defs>
				<clipPath id="SVGID_12_">
					<use xlink:href="#SVGID_11_"  style="overflow:visible;"/>
				</clipPath>
				<g class="st9">
					<path class="st4" d="M235.48,112.41l9.18,0.1c0.41,0.05,0.84,0.13,1.26,0.22c0.42,0.09,0.85,0.21,1.27,0.32
						c0.42,0.12,0.83,0.24,1.23,0.36c0.4,0.12,0.78,0.23,1.14,0.32l-8.41,0.1c-0.42-0.11-0.86-0.24-1.32-0.37
						c-0.46-0.14-0.94-0.28-1.42-0.41c-0.48-0.14-0.98-0.27-1.47-0.38C236.44,112.56,235.95,112.47,235.48,112.41"/>
				</g>
			</g>
			<g>
				<polygon class="st4" points="241.15,113.83 249.56,113.74 307.04,128.69 307.9,131.24 				"/>
			</g>
			<g class="st1">
				<defs>
					<path id="SVGID_13_" class="st1" d="M315.57,132.04c0.75,1.03,1.51,2.06,2.26,3.1c-0.46-0.63-1.08-1.13-1.82-1.54
						c-0.74-0.41-1.58-0.73-2.48-1c-0.9-0.27-1.86-0.49-2.81-0.71c-0.96-0.21-1.91-0.42-2.82-0.65l-0.87-2.55
						c0.78,0.2,1.6,0.38,2.42,0.56c0.82,0.18,1.64,0.37,2.42,0.61c0.77,0.23,1.5,0.51,2.13,0.86
						C314.64,131.07,315.18,131.5,315.57,132.04z"/>
				</defs>
				<clipPath id="SVGID_14_">
					<use xlink:href="#SVGID_13_"  style="overflow:visible;"/>
				</clipPath>
				<g class="st10">
					<path class="st4" d="M307.9,131.24l-0.87-2.55c0.78,0.2,1.6,0.38,2.42,0.56c0.82,0.18,1.64,0.37,2.42,0.61
						c0.77,0.23,1.5,0.51,2.13,0.86c0.63,0.35,1.17,0.78,1.56,1.32l2.26,3.1c-0.46-0.63-1.08-1.13-1.82-1.54
						c-0.74-0.41-1.58-0.73-2.48-1c-0.9-0.27-1.86-0.49-2.81-0.71C309.77,131.68,308.81,131.47,307.9,131.24"/>
				</g>
			</g>
			<g>
				<path class="st11" d="M235.48,112.41c0.48,0.06,0.97,0.15,1.46,0.26c0.49,0.11,0.98,0.24,1.47,0.38
					c0.49,0.14,0.96,0.28,1.42,0.41c0.46,0.14,0.9,0.26,1.32,0.37l66.75,17.4c1.34,0.35,2.79,0.63,4.19,0.97
					c1.4,0.34,2.73,0.75,3.83,1.34c1.1,0.59,1.96,1.38,2.41,2.48c0.45,1.1,0.48,2.52-0.07,4.38c-2.51,8.38-6.63,15.25-11.38,20.89
					c-4.69,5.57-10,9.95-15.01,13.44c-4.96,3.45-9.64,6.02-13.14,7.99c-3.48,1.96-5.8,3.32-6.08,4.35
					c-0.33,1.21,1.38,2.82,3.96,5.11c2.58,2.29,6.04,5.26,9.21,9.19c3.17,3.92,6.04,8.77,7.47,14.81c1.42,5.99,1.4,13.1-1.15,21.54
					c-1.86,6.15-4.6,11.7-8.06,16.49c-3.42,4.73-7.55,8.73-12.24,11.81c-4.64,3.05-9.84,5.22-15.45,6.35
					c-5.57,1.12-11.57,1.21-17.87,0.12c-0.55-0.09-1.1-0.2-1.65-0.31c-0.55-0.11-1.11-0.23-1.66-0.37
					c-0.56-0.13-1.11-0.27-1.67-0.42c-0.56-0.15-1.12-0.31-1.69-0.48c-6.3-1.88-11.66-4.53-16.15-7.49
					c-4.49-2.96-8.13-6.24-10.98-9.35c-2.85-3.12-4.92-6.09-6.24-8.41c-1.33-2.33-1.91-4.01-1.8-4.54c0.07-0.33,1.41-1.57,3.42-3.26
					c2.02-1.7,4.72-3.84,7.49-5.95c2.79-2.12,5.65-4.21,7.94-5.75c2.31-1.55,4.03-2.54,4.54-2.46c0.95,0.27,1.82,1.33,2.81,2.83
					c0.99,1.5,2.12,3.43,3.59,5.46c1.47,2.03,3.29,4.15,5.68,6.04c2.39,1.89,5.35,3.54,9.12,4.64c0.16,0.05,0.32,0.09,0.49,0.13
					c0.16,0.04,0.32,0.08,0.49,0.12c0.16,0.04,0.32,0.07,0.49,0.1s0.33,0.06,0.49,0.09c2.42,0.39,4.85,0.24,7.18-0.35
					c2.34-0.59,4.57-1.62,6.58-2.97c2.02-1.36,3.81-3.05,5.26-4.95c1.45-1.91,2.55-4.04,3.16-6.26c1.1-4,1.04-7.74,0.02-11.2
					c-1.03-3.47-3.05-6.65-5.86-9.51c-2.82-2.86-6.43-5.4-10.65-7.58c-4.22-2.18-9.03-4.02-14.24-5.47
					c-0.61-0.17-1.3-0.42-1.99-0.76c-0.69-0.33-1.38-0.74-1.98-1.22c-0.59-0.48-1.09-1.03-1.4-1.64c-0.31-0.61-0.43-1.29-0.26-2.02
					c0.41-1.78,3.38-4.41,7.66-7.46c4.32-3.08,9.98-6.59,15.69-10.09c5.77-3.54,11.59-7.06,16.09-10.07
					c4.54-3.04,7.71-5.56,8.11-7.04c0.24-0.89,0.04-1.65-0.45-2.29c-0.48-0.65-1.26-1.19-2.17-1.64c-0.91-0.46-1.97-0.83-3.01-1.15
					c-1.05-0.32-2.09-0.58-2.97-0.82c-0.68-0.18-1.35-0.35-2.04-0.5c-0.68-0.15-1.37-0.3-2.06-0.43c-0.69-0.13-1.38-0.25-2.07-0.36
					c-0.69-0.11-1.38-0.21-2.07-0.3c-1.55-0.2-3.09-0.35-4.62-0.47c-1.52-0.11-3.02-0.19-4.49-0.24c-1.46-0.05-2.89-0.07-4.26-0.07
					c-1.37,0-2.69,0.02-3.95,0.04c-1.25,0.03-2.43,0.06-3.53,0.1c-1.1,0.03-2.12,0.07-3.04,0.09c-0.92,0.02-1.75,0.03-2.47,0.02
					c-0.72-0.01-1.33-0.04-1.81-0.11c-0.06-0.01-0.12-0.02-0.18-0.03c-0.06-0.01-0.11-0.02-0.16-0.03c-0.05-0.01-0.1-0.02-0.15-0.03
					c-0.05-0.01-0.1-0.02-0.14-0.03c-0.72-0.2-1.19-1.89-1.47-4.39c-0.28-2.51-0.38-5.84-0.35-9.31c0.03-3.48,0.18-7.1,0.38-10.14
					c0.21-3.05,0.47-5.51,0.72-6.65c0.17-0.78,0.43-1.4,0.76-1.89c0.33-0.49,0.74-0.84,1.21-1.09c0.46-0.25,0.98-0.39,1.53-0.45
					C234.28,112.32,234.87,112.34,235.48,112.41z"/>
			</g>
		</g>
	</g>
</g>
<g>
	
		<image style="overflow:visible;opacity:0.75;" width="335" height="525" xlink:href="EE02A9F7608E8338.png"  transform="matrix(0.24 0 0 0.24 106.7299 159.7701)">
	</image>
	<g>
		<g class="st1">
			<g class="st1">
				<defs>
					<path id="SVGID_15_" class="st1" d="M129.69,242.88l7.5-13.96c-0.13,0.25-0.25,0.5-0.35,0.75c-0.1,0.25-0.19,0.5-0.25,0.75
						c-0.07,0.25-0.12,0.51-0.15,0.76c-0.03,0.26-0.05,0.52-0.04,0.78c0.01,0.42,0.07,0.77,0.18,1.06c0.11,0.29,0.26,0.53,0.43,0.72
						c0.18,0.19,0.38,0.33,0.59,0.43s0.44,0.17,0.66,0.2c0.03,0,0.05,0.01,0.08,0.01s0.05,0.01,0.08,0.01s0.05,0,0.08,0.01
						c0.03,0,0.05,0,0.08,0c0.35,0.01,0.69-0.06,1.06-0.16c0.37-0.1,0.77-0.25,1.24-0.39c0.47-0.14,1-0.28,1.64-0.38
						c0.64-0.1,1.38-0.15,2.27-0.12c0.27,0.01,0.53,0.02,0.79,0.04c0.26,0.02,0.52,0.04,0.77,0.06c0.26,0.02,0.51,0.05,0.76,0.08
						c0.25,0.03,0.5,0.07,0.74,0.1c0.47,0.07,0.93,0.15,1.38,0.24c0.45,0.09,0.89,0.18,1.32,0.28c0.43,0.1,0.85,0.2,1.25,0.31
						c0.41,0.1,0.8,0.21,1.18,0.31c0.38,0.1,0.75,0.21,1.11,0.3c0.36,0.1,0.71,0.19,1.04,0.28c0.33,0.09,0.66,0.16,0.96,0.23
						c0.31,0.07,0.6,0.12,0.89,0.17c0.08,0.01,0.16,0.02,0.24,0.03c0.08,0.01,0.16,0.02,0.23,0.03c0.08,0.01,0.15,0.01,0.23,0.02
						c0.07,0.01,0.15,0.01,0.22,0.01c0.87,0.03,1.71-0.11,2.49-0.38c0.79-0.28,1.52-0.69,2.17-1.24c0.65-0.54,1.23-1.21,1.7-1.98
						c0.47-0.77,0.83-1.65,1.06-2.61l-3.38,14.27c-0.26,1.09-0.67,2.09-1.21,2.96c-0.53,0.87-1.19,1.62-1.94,2.24
						c-0.75,0.61-1.59,1.08-2.49,1.38c-0.9,0.31-1.86,0.45-2.86,0.41c-0.08,0-0.17-0.01-0.25-0.01c-0.09-0.01-0.17-0.01-0.26-0.02
						s-0.18-0.02-0.27-0.03c-0.09-0.01-0.18-0.03-0.28-0.04c-0.32-0.05-0.66-0.12-1.02-0.2c-0.35-0.08-0.72-0.17-1.11-0.27
						c-0.38-0.1-0.78-0.21-1.19-0.32c-0.41-0.11-0.84-0.23-1.28-0.35c-0.44-0.12-0.89-0.24-1.36-0.37
						c-0.47-0.12-0.94-0.24-1.44-0.36c-0.49-0.12-0.99-0.23-1.51-0.33c-0.51-0.1-1.04-0.2-1.58-0.28c-0.28-0.04-0.56-0.08-0.85-0.12
						c-0.29-0.04-0.58-0.07-0.87-0.1c-0.29-0.03-0.59-0.06-0.89-0.08c-0.3-0.02-0.6-0.04-0.9-0.05c-1.02-0.04-1.87,0.02-2.6,0.12
						c-0.73,0.1-1.34,0.26-1.88,0.41c-0.53,0.16-0.99,0.31-1.41,0.43c-0.42,0.12-0.81,0.19-1.21,0.17c-0.03,0-0.06,0-0.09,0
						c-0.03,0-0.06,0-0.09-0.01c-0.03,0-0.06-0.01-0.09-0.01c-0.03,0-0.06-0.01-0.09-0.01c-0.25-0.04-0.51-0.11-0.76-0.23
						c-0.25-0.12-0.48-0.28-0.68-0.5c-0.2-0.22-0.37-0.49-0.5-0.82c-0.12-0.33-0.2-0.73-0.21-1.2c-0.01-0.3,0.01-0.59,0.04-0.88
						c0.04-0.29,0.09-0.58,0.17-0.87c0.08-0.29,0.17-0.57,0.28-0.85C129.41,243.44,129.54,243.16,129.69,242.88z"/>
				</defs>
				<clipPath id="SVGID_16_">
					<use xlink:href="#SVGID_15_"  style="overflow:visible;"/>
				</clipPath>
				<g class="st12">
					<path class="st13" d="M129.69,242.88l7.5-13.96c-0.13,0.25-0.25,0.5-0.35,0.75c-0.1,0.25-0.19,0.5-0.25,0.75
						c-0.07,0.25-0.12,0.51-0.15,0.76c-0.03,0.26-0.05,0.52-0.04,0.78c0.01,0.42,0.07,0.77,0.18,1.06c0.11,0.29,0.26,0.53,0.43,0.72
						c0.18,0.19,0.38,0.33,0.59,0.43s0.44,0.17,0.66,0.2c0.03,0,0.05,0.01,0.08,0.01s0.05,0.01,0.08,0.01s0.05,0,0.08,0.01
						c0.03,0,0.05,0,0.08,0c0.35,0.01,0.69-0.06,1.06-0.16c0.37-0.1,0.77-0.25,1.24-0.39c0.47-0.14,1-0.28,1.64-0.38
						c0.64-0.1,1.38-0.15,2.27-0.12c0.27,0.01,0.53,0.02,0.79,0.04c0.26,0.02,0.52,0.04,0.77,0.06c0.26,0.02,0.51,0.05,0.76,0.08
						c0.25,0.03,0.5,0.07,0.74,0.1c0.47,0.07,0.93,0.15,1.38,0.24c0.45,0.09,0.89,0.18,1.32,0.28c0.43,0.1,0.85,0.2,1.25,0.31
						c0.41,0.1,0.8,0.21,1.18,0.31c0.38,0.1,0.75,0.21,1.11,0.3c0.36,0.1,0.71,0.19,1.04,0.28c0.33,0.09,0.66,0.16,0.96,0.23
						c0.31,0.07,0.6,0.12,0.89,0.17c0.08,0.01,0.16,0.02,0.24,0.03c0.08,0.01,0.16,0.02,0.23,0.03c0.08,0.01,0.15,0.01,0.23,0.02
						c0.07,0.01,0.15,0.01,0.22,0.01c0.39,0.01,0.77-0.01,1.15-0.06c0.38-0.05,0.74-0.13,1.1-0.24c0.36-0.11,0.71-0.25,1.04-0.42
						c0.34-0.17,0.66-0.36,0.96-0.58l-3.83,14.92c-0.35,0.25-0.72,0.46-1.1,0.65c-0.38,0.19-0.78,0.34-1.19,0.46
						c-0.41,0.12-0.83,0.21-1.26,0.27c-0.43,0.05-0.87,0.07-1.32,0.06c-0.08,0-0.17-0.01-0.25-0.01c-0.09-0.01-0.17-0.01-0.26-0.02
						s-0.18-0.02-0.27-0.03c-0.09-0.01-0.18-0.03-0.28-0.04c-0.32-0.05-0.66-0.12-1.02-0.2c-0.35-0.08-0.72-0.17-1.11-0.27
						c-0.38-0.1-0.78-0.21-1.19-0.32c-0.41-0.11-0.84-0.23-1.28-0.35c-0.44-0.12-0.89-0.24-1.36-0.37
						c-0.47-0.12-0.94-0.24-1.44-0.36c-0.49-0.12-0.99-0.23-1.51-0.33c-0.51-0.1-1.04-0.2-1.58-0.28c-0.28-0.04-0.56-0.08-0.85-0.12
						c-0.29-0.04-0.58-0.07-0.87-0.1c-0.29-0.03-0.59-0.06-0.89-0.08c-0.3-0.02-0.6-0.04-0.9-0.05c-1.02-0.04-1.87,0.02-2.6,0.12
						c-0.73,0.1-1.34,0.26-1.88,0.41c-0.53,0.16-0.99,0.31-1.41,0.43c-0.42,0.12-0.81,0.19-1.21,0.17c-0.03,0-0.06,0-0.09,0
						c-0.03,0-0.06,0-0.09-0.01c-0.03,0-0.06-0.01-0.09-0.01c-0.03,0-0.06-0.01-0.09-0.01c-0.25-0.04-0.51-0.11-0.76-0.23
						c-0.25-0.12-0.48-0.28-0.68-0.5c-0.2-0.22-0.37-0.49-0.5-0.82c-0.12-0.33-0.2-0.73-0.21-1.2c-0.01-0.3,0.01-0.59,0.04-0.88
						c0.04-0.29,0.09-0.58,0.17-0.87c0.08-0.29,0.17-0.57,0.28-0.85C129.41,243.44,129.54,243.16,129.69,242.88"/>
					<path class="st13" d="M158.33,249.47l3.83-14.92c0.11-0.08,0.22-0.16,0.33-0.25c0.11-0.09,0.21-0.18,0.32-0.27
						c0.1-0.09,0.21-0.19,0.3-0.29c0.1-0.1,0.2-0.2,0.29-0.31l-3.65,14.77c-0.11,0.12-0.22,0.24-0.33,0.35
						c-0.11,0.11-0.23,0.22-0.35,0.33c-0.12,0.11-0.24,0.21-0.36,0.31C158.58,249.29,158.45,249.38,158.33,249.47"/>
					<path class="st13" d="M159.75,248.21l3.65-14.77c0.09-0.1,0.18-0.21,0.26-0.31c0.09-0.11,0.17-0.22,0.25-0.33
						c0.08-0.11,0.16-0.23,0.24-0.35c0.08-0.12,0.15-0.24,0.22-0.36l-3.51,14.6c-0.08,0.14-0.16,0.28-0.25,0.41
						c-0.09,0.13-0.18,0.26-0.27,0.39c-0.09,0.13-0.19,0.25-0.29,0.37C159.95,247.98,159.85,248.1,159.75,248.21"/>
					<path class="st13" d="M160.86,246.69l3.51-14.6c0.08-0.14,0.16-0.28,0.23-0.43c0.07-0.15,0.14-0.3,0.21-0.45
						c0.07-0.15,0.13-0.31,0.19-0.47c0.06-0.16,0.11-0.32,0.16-0.48l-3.4,14.36c-0.06,0.19-0.12,0.37-0.19,0.55
						c-0.07,0.18-0.14,0.36-0.21,0.53c-0.08,0.17-0.15,0.34-0.24,0.51C161.04,246.37,160.95,246.53,160.86,246.69"/>
					<path class="st14" d="M161.76,244.62l3.4-14.36c0.02-0.05,0.03-0.1,0.05-0.15c0.01-0.05,0.03-0.1,0.04-0.15
						c0.01-0.05,0.03-0.1,0.04-0.15c0.01-0.05,0.03-0.1,0.04-0.16l-3.38,14.27c-0.01,0.06-0.03,0.12-0.04,0.18
						c-0.01,0.06-0.03,0.12-0.05,0.18s-0.03,0.12-0.05,0.17C161.79,244.5,161.77,244.56,161.76,244.62"/>
				</g>
			</g>
			<g class="st1">
				<defs>
					<path id="SVGID_17_" class="st1" d="M161.29,236.07l3.49-13.32c0.01-0.05,0.03-0.08,0.05-0.12c0.02-0.03,0.05-0.06,0.09-0.09
						c0.04-0.02,0.08-0.04,0.13-0.05c0.05-0.01,0.1-0.02,0.17-0.01l-3.42,13.28c-0.07,0-0.14,0-0.19,0.01
						c-0.06,0.01-0.1,0.03-0.14,0.06c-0.04,0.03-0.07,0.06-0.1,0.1C161.32,235.98,161.3,236.02,161.29,236.07z"/>
				</defs>
				<clipPath id="SVGID_18_">
					<use xlink:href="#SVGID_17_"  style="overflow:visible;"/>
				</clipPath>
				<g class="st15">
					<polyline class="st14" points="161.29,236.07 164.77,222.75 164.77,222.75 164.77,222.74 164.78,222.74 164.78,222.73 
						161.29,236.05 161.29,236.06 161.29,236.06 161.29,236.07 161.29,236.07 					"/>
					<path class="st13" d="M161.29,236.05l3.48-13.32c0-0.01,0-0.01,0.01-0.02s0-0.01,0.01-0.02c0-0.01,0.01-0.01,0.01-0.02
						c0-0.01,0.01-0.01,0.01-0.02l-3.48,13.31c0,0.01-0.01,0.01-0.01,0.02c0,0.01-0.01,0.01-0.01,0.02s-0.01,0.01-0.01,0.02
						C161.3,236.04,161.3,236.04,161.29,236.05"/>
					<path class="st13" d="M161.33,235.97l3.48-13.31c0-0.01,0.01-0.01,0.01-0.02c0-0.01,0.01-0.01,0.01-0.02
						c0,0,0.01-0.01,0.01-0.01c0,0,0.01-0.01,0.01-0.01l-3.47,13.3c0,0.01-0.01,0.01-0.01,0.02c0,0.01-0.01,0.01-0.01,0.02
						s-0.01,0.01-0.01,0.02S161.33,235.96,161.33,235.97"/>
					<path class="st13" d="M161.38,235.9l3.47-13.3c0,0,0.01-0.01,0.01-0.01c0,0,0.01-0.01,0.01-0.01c0,0,0.01-0.01,0.01-0.01
						s0.01-0.01,0.01-0.01l-3.47,13.29c-0.01,0-0.01,0.01-0.02,0.01c-0.01,0-0.01,0.01-0.01,0.01c0,0-0.01,0.01-0.01,0.01
						C161.39,235.89,161.38,235.89,161.38,235.9"/>
					<path class="st13" d="M161.43,235.85l3.47-13.29c0.02-0.01,0.04-0.02,0.06-0.03c0.02-0.01,0.04-0.02,0.07-0.02
						c0.03-0.01,0.05-0.01,0.08-0.01s0.06,0,0.09,0l-3.42,13.28c-0.04,0-0.07,0-0.11,0s-0.06,0.01-0.09,0.01s-0.06,0.02-0.08,0.03
						S161.45,235.83,161.43,235.85"/>
				</g>
			</g>
			<g class="st1">
				<defs>
					<path id="SVGID_19_" class="st1" d="M171.04,238.53l-2.51,15.52c0.04-0.23,0.07-0.47,0.1-0.71c0.03-0.24,0.05-0.48,0.08-0.72
						c0.02-0.24,0.04-0.49,0.05-0.73c0.01-0.25,0.02-0.49,0.02-0.74c0.02-2.06-0.33-4.04-0.89-5.86c-0.56-1.82-1.33-3.47-2.14-4.87
						c-0.81-1.4-1.66-2.54-2.37-3.35c-0.72-0.81-1.3-1.27-1.59-1.32l3.42-13.28c0.25,0.04,0.76,0.44,1.38,1.15
						c0.62,0.7,1.36,1.7,2.06,2.93c0.7,1.22,1.37,2.67,1.85,4.27c0.48,1.59,0.79,3.33,0.76,5.15c0,0.22-0.01,0.44-0.02,0.65
						c-0.01,0.22-0.03,0.43-0.04,0.64c-0.02,0.21-0.04,0.42-0.07,0.63C171.1,238.12,171.07,238.33,171.04,238.53z"/>
				</defs>
				<clipPath id="SVGID_20_">
					<use xlink:href="#SVGID_19_"  style="overflow:visible;"/>
				</clipPath>
				<g class="st16">
					<path class="st13" d="M161.78,235.77l3.42-13.28c0.25,0.04,0.76,0.44,1.38,1.15c0.62,0.7,1.36,1.7,2.06,2.93
						c0.7,1.22,1.37,2.67,1.85,4.27c0.48,1.59,0.79,3.33,0.76,5.15c0,0.22-0.01,0.44-0.02,0.65c-0.01,0.22-0.03,0.43-0.04,0.64
						c-0.02,0.21-0.04,0.42-0.07,0.63c-0.03,0.21-0.06,0.42-0.09,0.62l-2.51,15.52c0.04-0.23,0.07-0.47,0.1-0.71
						c0.03-0.24,0.05-0.48,0.08-0.72c0.02-0.24,0.04-0.49,0.05-0.73c0.01-0.25,0.02-0.49,0.02-0.74c0.02-2.06-0.33-4.04-0.89-5.86
						c-0.56-1.82-1.33-3.47-2.14-4.87c-0.81-1.4-1.66-2.54-2.37-3.35C162.65,236.28,162.07,235.81,161.78,235.77"/>
				</g>
			</g>
			<g class="st1">
				<defs>
					<path id="SVGID_21_" class="st1" d="M117.1,234.19l9.13-12.86c2.11-2.97,4.53-5.56,7.05-7.92c2.54-2.37,5.18-4.49,7.71-6.5
						c2.54-2.02,4.97-3.92,7.05-5.83c2.1-1.92,3.86-3.86,5.05-5.94l-5.35,9.33c-1.36,2.38-3.38,4.58-5.78,6.77
						c-2.39,2.17-5.16,4.33-8.07,6.62c-2.89,2.27-5.9,4.68-8.79,7.36C122.23,227.89,119.48,230.83,117.1,234.19z"/>
				</defs>
				<clipPath id="SVGID_22_">
					<use xlink:href="#SVGID_21_"  style="overflow:visible;"/>
				</clipPath>
				<g class="st17">
					<path class="st13" d="M117.1,234.19l9.13-12.86c0.17-0.23,0.33-0.46,0.5-0.69c0.17-0.23,0.34-0.45,0.51-0.68
						c0.17-0.22,0.35-0.45,0.52-0.67c0.18-0.22,0.35-0.44,0.53-0.65l-8.86,12.5c-0.2,0.24-0.41,0.49-0.61,0.74
						c-0.2,0.25-0.4,0.5-0.59,0.75c-0.2,0.25-0.39,0.51-0.58,0.77C117.47,233.66,117.28,233.92,117.1,234.19"/>
					<path class="st13" d="M119.45,231.14l8.86-12.5c1.85-2.22,3.85-4.22,5.91-6.08c2.07-1.87,4.18-3.58,6.24-5.21
						c2.06-1.64,4.06-3.2,5.87-4.74c1.82-1.55,3.46-3.09,4.8-4.68l-5.63,9.72c-1.53,1.81-3.41,3.56-5.5,5.32
						c-2.08,1.75-4.36,3.52-6.71,5.38c-2.34,1.85-4.76,3.79-7.11,5.91C123.82,226.36,121.54,228.63,119.45,231.14"/>
					<path class="st13" d="M145.49,207.64l5.63-9.72c0.19-0.23,0.37-0.45,0.55-0.68c0.18-0.23,0.35-0.46,0.51-0.69
						c0.16-0.23,0.32-0.46,0.47-0.7c0.15-0.23,0.3-0.47,0.43-0.71l-5.35,9.33c-0.16,0.27-0.32,0.54-0.49,0.81
						c-0.17,0.27-0.35,0.53-0.54,0.8c-0.19,0.26-0.38,0.53-0.59,0.79C145.92,207.13,145.71,207.39,145.49,207.64"/>
				</g>
			</g>
			<g class="st1">
				<defs>
					<path id="SVGID_23_" class="st1" d="M128.9,187.46l7.9-7.09c-1.27,1.14-2.38,2.47-3.36,3.85c-0.98,1.38-1.82,2.81-2.56,4.14
						c-0.73,1.33-1.36,2.56-1.9,3.56c-0.54,1-0.99,1.76-1.38,2.14l-9.16,9.05c0.44-0.44,0.95-1.3,1.56-2.44
						c0.61-1.14,1.32-2.55,2.15-4.07c0.83-1.52,1.79-3.16,2.91-4.73C126.18,190.28,127.45,188.76,128.9,187.46z"/>
				</defs>
				<clipPath id="SVGID_24_">
					<use xlink:href="#SVGID_23_"  style="overflow:visible;"/>
				</clipPath>
				<g class="st18">
					<path class="st13" d="M128.9,187.46l7.9-7.09c-1.27,1.14-2.38,2.47-3.36,3.85c-0.98,1.38-1.82,2.81-2.56,4.14
						c-0.73,1.33-1.36,2.56-1.9,3.56c-0.54,1-0.99,1.76-1.38,2.14l-9.16,9.05c0.44-0.44,0.95-1.3,1.56-2.44
						c0.61-1.14,1.32-2.55,2.15-4.07c0.83-1.52,1.79-3.16,2.91-4.73C126.18,190.28,127.45,188.76,128.9,187.46"/>
				</g>
			</g>
			<g class="st1">
				<defs>
					<path id="SVGID_25_" class="st1" d="M122.87,169.43c2.93-1.57,5.86-3.14,8.8-4.72c0.91-0.49,1.86-0.93,2.85-1.33
						c0.99-0.39,2.03-0.74,3.11-1.02c1.08-0.28,2.2-0.51,3.35-0.66c1.16-0.15,2.35-0.23,3.59-0.23c0.4,0,0.81,0.01,1.21,0.02
						c0.4,0.01,0.8,0.03,1.19,0.06c0.39,0.02,0.78,0.05,1.17,0.09c0.39,0.04,0.77,0.08,1.15,0.13l-6.11,4.31
						c-0.44-0.06-0.89-0.11-1.33-0.15c-0.45-0.04-0.9-0.08-1.35-0.11c-0.45-0.03-0.91-0.05-1.37-0.07
						c-0.46-0.02-0.93-0.02-1.39-0.02c-1.42,0-2.8,0.09-4.14,0.26c-1.33,0.17-2.62,0.43-3.86,0.75c-1.24,0.32-2.43,0.72-3.57,1.17
						C125,168.36,123.91,168.87,122.87,169.43z"/>
				</defs>
				<clipPath id="SVGID_26_">
					<use xlink:href="#SVGID_25_"  style="overflow:visible;"/>
				</clipPath>
				<g class="st19">
					<path class="st13" d="M122.87,169.43l8.8-4.72c0.91-0.49,1.86-0.93,2.85-1.33c0.99-0.39,2.03-0.74,3.11-1.02
						c1.08-0.28,2.2-0.51,3.35-0.66c1.16-0.15,2.35-0.23,3.59-0.23c0.4,0,0.81,0.01,1.21,0.02c0.4,0.01,0.8,0.03,1.19,0.06
						c0.39,0.02,0.78,0.05,1.17,0.09c0.39,0.04,0.77,0.08,1.15,0.13l-6.11,4.31c-0.44-0.06-0.89-0.11-1.33-0.15
						c-0.45-0.04-0.9-0.08-1.35-0.11c-0.45-0.03-0.91-0.05-1.37-0.07c-0.46-0.02-0.93-0.02-1.39-0.02c-1.42,0-2.8,0.09-4.14,0.26
						c-1.33,0.17-2.62,0.43-3.86,0.75c-1.24,0.32-2.43,0.72-3.57,1.17C125,168.36,123.91,168.87,122.87,169.43"/>
				</g>
			</g>
			<g class="st1">
				<defs>
					<path id="SVGID_27_" class="st1" d="M170.2,194.44l-2.74,9.3c0.21-0.71,0.4-1.44,0.56-2.19c0.16-0.74,0.31-1.51,0.42-2.28
						c0.12-0.78,0.21-1.57,0.27-2.38c0.06-0.81,0.1-1.64,0.11-2.48c0.04-4.04-0.59-7.7-1.79-10.96c-1.21-3.27-2.99-6.13-5.26-8.55
						c-2.27-2.42-5.03-4.38-8.16-5.86c-3.14-1.48-6.65-2.48-10.44-2.97l6.11-4.31c3.28,0.42,6.31,1.27,9.02,2.55
						c2.71,1.28,5.08,2.97,7.04,5.06c1.96,2.09,3.49,4.56,4.53,7.4c1.03,2.83,1.57,6.01,1.53,9.52c-0.01,0.73-0.04,1.46-0.1,2.16
						c-0.06,0.71-0.14,1.4-0.24,2.07c-0.1,0.68-0.23,1.34-0.37,1.99C170.55,193.18,170.38,193.81,170.2,194.44z"/>
				</defs>
				<clipPath id="SVGID_28_">
					<use xlink:href="#SVGID_27_"  style="overflow:visible;"/>
				</clipPath>
				<g class="st20">
					<path class="st13" d="M143.17,166.07l6.11-4.31c3.28,0.42,6.31,1.27,9.02,2.55c2.71,1.28,5.08,2.97,7.04,5.06
						c1.96,2.09,3.49,4.56,4.53,7.4c1.03,2.83,1.57,6.01,1.53,9.52c-0.01,0.73-0.04,1.46-0.1,2.16c-0.06,0.71-0.14,1.4-0.24,2.07
						c-0.1,0.68-0.23,1.34-0.37,1.99c-0.14,0.65-0.31,1.28-0.49,1.91l-2.74,9.3c0.21-0.71,0.4-1.44,0.56-2.19
						c0.16-0.74,0.31-1.51,0.42-2.28c0.12-0.78,0.21-1.57,0.27-2.38c0.06-0.81,0.1-1.64,0.11-2.48c0.04-4.04-0.59-7.7-1.79-10.96
						c-1.21-3.27-2.99-6.13-5.26-8.55c-2.27-2.42-5.03-4.38-8.16-5.86C150.48,167.56,146.96,166.56,143.17,166.07"/>
				</g>
			</g>
			<g>
				<path class="st21" d="M143.17,166.07c3.79,0.49,7.3,1.49,10.44,2.97c3.14,1.48,5.89,3.45,8.16,5.86
					c2.27,2.41,4.05,5.27,5.26,8.55c1.2,3.26,1.83,6.93,1.79,10.96c-0.08,8.02-2.73,14.5-6.63,19.91
					c-3.85,5.34-8.92,9.63-13.94,13.34c-4.96,3.67-9.88,6.76-13.53,9.74c-3.62,2.95-5.99,5.78-5.92,8.94
					c0.01,0.47,0.09,0.87,0.21,1.2c0.12,0.33,0.3,0.6,0.5,0.82c0.2,0.22,0.43,0.38,0.68,0.5c0.25,0.12,0.5,0.19,0.76,0.23
					c0.03,0,0.06,0.01,0.09,0.01c0.03,0,0.06,0.01,0.09,0.01c0.03,0,0.06,0.01,0.09,0.01c0.03,0,0.06,0,0.09,0
					c0.4,0.02,0.79-0.06,1.21-0.17c0.42-0.12,0.88-0.27,1.41-0.43c0.53-0.16,1.14-0.31,1.88-0.41c0.73-0.1,1.58-0.16,2.6-0.12
					c0.3,0.01,0.61,0.03,0.9,0.05c0.3,0.02,0.59,0.05,0.89,0.08c0.29,0.03,0.58,0.06,0.87,0.1c0.29,0.04,0.57,0.08,0.85,0.12
					c0.54,0.08,1.06,0.18,1.58,0.28c0.52,0.1,1.02,0.22,1.51,0.33c0.49,0.12,0.97,0.24,1.44,0.36c0.47,0.12,0.92,0.25,1.36,0.37
					c0.44,0.12,0.86,0.24,1.28,0.35c0.41,0.11,0.81,0.22,1.19,0.32c0.38,0.1,0.75,0.19,1.11,0.27c0.35,0.08,0.69,0.14,1.02,0.2
					c0.09,0.01,0.18,0.03,0.28,0.04c0.09,0.01,0.18,0.02,0.27,0.03s0.17,0.02,0.26,0.02c0.09,0.01,0.17,0.01,0.25,0.01
					c1.19,0.05,2.32-0.17,3.37-0.61c1.05-0.44,1.99-1.1,2.8-1.95c0.8-0.85,1.46-1.9,1.92-3.1c0.46-1.2,0.72-2.56,0.72-4.03
					c0-0.69-0.11-1.38-0.26-2.03c-0.15-0.65-0.35-1.25-0.49-1.76c-0.15-0.51-0.25-0.94-0.23-1.23c0.02-0.29,0.16-0.45,0.52-0.44
					c0.29,0.04,0.87,0.51,1.59,1.32c0.72,0.81,1.57,1.95,2.37,3.35c0.81,1.4,1.58,3.05,2.14,4.87c0.56,1.81,0.91,3.79,0.89,5.86
					c-0.03,2.96-0.72,5.66-1.85,8.04c-1.13,2.36-2.7,4.41-4.49,6.06c-1.79,1.65-3.81,2.93-5.86,3.77c-2.04,0.84-4.11,1.24-6.01,1.15
					c-0.23-0.01-0.47-0.03-0.72-0.05c-0.25-0.02-0.5-0.05-0.75-0.07c-0.25-0.03-0.51-0.06-0.78-0.1c-0.26-0.04-0.53-0.08-0.8-0.12
					c-0.61-0.1-1.23-0.22-1.87-0.34c-0.64-0.13-1.29-0.27-1.95-0.42c-0.66-0.15-1.33-0.31-1.99-0.47c-0.67-0.16-1.34-0.33-2.01-0.5
					c-0.67-0.17-1.34-0.33-2.01-0.49c-0.66-0.16-1.32-0.32-1.96-0.47c-0.64-0.15-1.27-0.29-1.88-0.41c-0.61-0.12-1.2-0.24-1.77-0.33
					c-0.23-0.04-0.46-0.07-0.68-0.1c-0.22-0.03-0.44-0.06-0.66-0.08c-0.21-0.02-0.42-0.05-0.63-0.06c-0.2-0.02-0.4-0.03-0.6-0.04
					c-1.51-0.07-3.04,0.05-4.55,0.27c-1.5,0.22-2.97,0.53-4.34,0.85c-1.37,0.32-2.64,0.64-3.76,0.87c-1.11,0.23-2.07,0.38-2.81,0.34
					c-0.07,0-0.13-0.01-0.2-0.01s-0.13-0.01-0.2-0.02c-0.06-0.01-0.13-0.01-0.19-0.02s-0.12-0.02-0.18-0.03
					c-0.79-0.13-1.43-0.4-1.95-0.78c-0.52-0.38-0.92-0.86-1.23-1.43c-0.31-0.56-0.52-1.2-0.66-1.88c-0.14-0.68-0.22-1.41-0.24-2.14
					c-0.39-9.92,1.85-17.7,5.45-24.08c3.66-6.47,8.72-11.48,13.86-15.82c5.21-4.39,10.48-8.09,14.47-11.92
					c4.03-3.87,6.72-7.85,6.7-12.81c-0.01-1.67-0.19-3.31-0.57-4.84c-0.38-1.53-0.95-2.96-1.73-4.21c-0.78-1.25-1.78-2.31-3-3.12
					c-1.22-0.81-2.67-1.37-4.36-1.6c-0.13-0.02-0.26-0.03-0.4-0.05c-0.13-0.01-0.27-0.03-0.41-0.04c-0.14-0.01-0.27-0.02-0.41-0.02
					c-0.14-0.01-0.28-0.01-0.42-0.01c-3.37-0.03-6.21,1.22-8.59,3.1c-2.37,1.87-4.29,4.38-5.86,6.87c-1.56,2.48-2.78,4.95-3.76,6.79
					c-0.97,1.84-1.71,3.06-2.3,3.05c-0.34-0.05-1.09-0.95-2.03-2.29c-0.94-1.34-2.08-3.14-3.17-4.97c-1.1-1.84-2.15-3.71-2.94-5.22
					c-0.79-1.51-1.3-2.65-1.32-3c-0.06-1.63,0.57-3.82,1.83-6.18c1.27-2.38,3.18-4.94,5.68-7.31c2.52-2.38,5.63-4.56,9.27-6.15
					c3.67-1.6,7.87-2.59,12.53-2.58c0.47,0,0.93,0.01,1.39,0.02c0.46,0.02,0.92,0.04,1.37,0.07c0.46,0.03,0.91,0.07,1.35,0.11
					C142.29,165.96,142.73,166.01,143.17,166.07z"/>
			</g>
		</g>
	</g>
</g>
<g>
	
		<image style="overflow:visible;opacity:0.75;" width="411" height="945" xlink:href="EE02A9F7608E8339.png"  transform="matrix(0.24 0 0 0.24 143.9299 94.0101)">
	</image>
	<g>
		<g class="st1">
			<g class="st1">
				<defs>
					<path id="SVGID_29_" class="st1" d="M205.71,99.07c1.52,1.09,3.04,2.19,4.55,3.28c0.46,0.33,0.89,0.7,1.28,1.09
						c0.39,0.4,0.73,0.83,1.02,1.29c0.29,0.47,0.53,0.96,0.7,1.5c0.18,0.54,0.29,1.11,0.34,1.72c0.09,1.18-0.13,3.99-0.45,8.15
						c-0.32,4.13-0.75,9.56-1.1,16.01c-0.34,6.38-0.6,13.74-0.6,21.78c0,7.94,0.27,16.54,0.96,25.54
						c0.58,7.55,1.65,15.34,2.95,23.34c1.29,7.9,2.82,16.01,4.34,24.27c1.51,8.16,3.02,16.48,4.3,24.9
						c1.27,8.32,2.31,16.74,2.92,25.21c0,0.01,0,0.02,0,0.03s0,0.02,0,0.03c0,0.01,0,0.02,0,0.03s0,0.02,0,0.03l-1.54,22.15
						c0-0.01,0-0.02,0-0.03s0-0.02,0-0.03c0-0.01,0-0.02,0-0.03c0-0.01,0-0.02,0-0.03c-0.71-9.52-1.91-19-3.38-28.38
						c-1.49-9.52-3.23-18.95-4.98-28.21c-1.77-9.4-3.55-18.63-5.06-27.65c-1.53-9.14-2.78-18.06-3.48-26.71
						c-0.83-10.33-1.17-20.23-1.2-29.39c-0.03-9.29,0.24-17.8,0.61-25.2c0.38-7.49,0.86-13.81,1.22-18.61
						c0.36-4.84,0.6-8.12,0.5-9.5c-0.05-0.71-0.19-1.38-0.4-2c-0.21-0.63-0.49-1.21-0.83-1.75c-0.34-0.54-0.74-1.05-1.19-1.51
						C206.75,99.88,206.25,99.46,205.71,99.07z"/>
				</defs>
				<clipPath id="SVGID_30_">
					<use xlink:href="#SVGID_29_"  style="overflow:visible;"/>
				</clipPath>
				<g class="st22">
					<path class="st23" d="M205.71,99.07l4.55,3.28c0.46,0.33,0.89,0.7,1.28,1.1c0.39,0.4,0.73,0.83,1.02,1.29
						c0.29,0.47,0.53,0.96,0.7,1.5c0.18,0.54,0.29,1.11,0.34,1.72c0.09,1.18-0.13,3.99-0.45,8.15c-0.32,4.13-0.75,9.56-1.1,16.01
						c-0.34,6.38-0.6,13.74-0.6,21.78c0,7.94,0.27,16.54,0.96,25.54c0.58,7.55,1.65,15.34,2.95,23.34
						c1.29,7.9,2.82,16.01,4.34,24.27c1.51,8.16,3.02,16.48,4.3,24.9c1.27,8.32,2.31,16.74,2.92,25.21c0,0.01,0,0.02,0,0.03
						s0,0.02,0,0.03c0,0.01,0,0.02,0,0.03s0,0.02,0,0.03l-1.54,22.15c0-0.01,0-0.02,0-0.03s0-0.02,0-0.03c0-0.01,0-0.02,0-0.03
						c0-0.01,0-0.02,0-0.03c-0.71-9.52-1.91-19-3.38-28.38c-1.49-9.52-3.23-18.95-4.98-28.21c-1.77-9.4-3.55-18.63-5.06-27.65
						c-1.53-9.14-2.78-18.06-3.48-26.71c-0.83-10.33-1.17-20.23-1.2-29.39c-0.03-9.29,0.24-17.8,0.61-25.2
						c0.38-7.49,0.86-13.81,1.22-18.61c0.36-4.84,0.6-8.12,0.5-9.5c-0.05-0.71-0.19-1.38-0.4-2c-0.21-0.63-0.49-1.21-0.83-1.75
						c-0.34-0.54-0.74-1.05-1.19-1.51C206.75,99.88,206.25,99.46,205.71,99.07"/>
				</g>
			</g>
			<g>
				<path class="st24" d="M196.29,95.8c1.45,0.16,2.98,0.45,4.47,0.91c1.49,0.45,2.92,1.06,4.2,1.86c1.27,0.79,2.38,1.76,3.2,2.93
					c0.82,1.17,1.34,2.54,1.46,4.12c0.1,1.38-0.14,4.66-0.5,9.5c-0.36,4.81-0.84,11.13-1.22,18.61c-0.37,7.4-0.65,15.91-0.61,25.2
					c0.03,9.16,0.37,19.06,1.2,29.39c0.7,8.65,1.95,17.57,3.48,26.71c1.51,9.02,3.28,18.25,5.06,27.65
					c1.75,9.27,3.5,18.69,4.98,28.21c1.46,9.39,2.67,18.87,3.38,28.38c0.07,0.92-1.35,1.75-3.69,2.48c-2.34,0.73-5.6,1.35-9.25,1.87
					c-3.63,0.51-7.64,0.91-11.49,1.18c-3.84,0.27-7.52,0.42-10.54,0.44c-0.14,0-0.29,0-0.43,0c-0.14,0-0.28,0-0.42,0
					c-0.14,0-0.27-0.01-0.41-0.02c-0.13-0.01-0.27-0.03-0.4-0.05c-0.81-0.15-1.57-0.58-2.34-1.86c-0.76-1.28-1.53-3.39-2.34-6.91
					c-0.82-3.54-1.7-8.5-2.69-15.5c-1-7.08-2.13-16.28-3.44-28.29c-0.95-8.67-1.69-17.06-2.33-25.25
					c-0.65-8.29-1.18-16.35-1.69-24.24c-0.52-7.99-1.01-15.79-1.57-23.47c-0.57-7.77-1.21-15.41-2.02-22.97
					c-0.61-5.71-2.39-9.82-4.74-12.92c-2.35-3.1-5.26-5.16-8.12-6.79c-2.86-1.62-5.67-2.81-7.83-4.16c-2.16-1.35-3.68-2.88-3.96-5.2
					c-0.2-1.64,0.77-4.22,2.78-7.22c2.02-3.02,5.09-6.47,9.08-9.83c4.02-3.39,8.98-6.69,14.71-9.34c5.79-2.68,12.37-4.7,19.57-5.49
					c0.32-0.03,0.66-0.06,1.01-0.08c0.35-0.02,0.72-0.02,1.09-0.02c0.38,0,0.77,0.02,1.16,0.04
					C195.47,95.72,195.88,95.75,196.29,95.8z"/>
			</g>
		</g>
	</g>
</g>
</svg>
